<svg height="170" width="816" xmlns="http://www.w3.org/2000/svg"><g fill-rule="evenodd" transform="scale(1.3333334)"><path d="m0 0h816v1056h-816z" fill="#fff"/><g fill="#373435" transform="matrix(.75 0 0 .75 306 396)"><path d="m-337.32916-436.9133c-1.21326 5.59055-5.24374 10.6535-9.03272 12.89526-4.77692 2.82566-13.85754 1.65294-20.00238 1.65294-12.82016 0-10.67328 2.05056-10.67328-10.78395l-.02469-33.06857c-.00543-2.38798-.21685-2.94125 1.95029-3.14528 3.24558-.3063 24.43504-.10622 26.42731.5429 4.54477 1.481 8.75113 6.64968 10.56409 11.20086 1.37974 3.46244 1.62377 16.86996.79138 20.70584zm-61.65857-52.0474v119.38593h20.73203l1.0596-.67529c.577-5.32031-.947-28.55294.79385-31.08667 3.19961-1.12877 21.95761.04745 28.31979-.99045 27.47706-4.48202 34.21166-30.83572 31.11383-54.67398-2.20667-16.9816-10.62042-28.72684-26.06915-32.09787-7.56009-1.64944-32.20802-.95737-42.56612-.95737-3.18382 0-11.27644-.68615-13.38383 1.0957z"/><path d="m68.60495-456.1594c-2.477356.741-47.508514.57996-48.263855.14475-2.203247-1.27055.139801-5.3465.838287-6.17099 12.831086-15.14639 51.766328-10.67576 47.425568 6.02624zm-48.69461 20.73945c2.345977-1.32935 44.124694-.50092 50.79608-.50092 21.91516 0 18.392976 1.43704 18.390504-7.26617-.002474-7.96816.56958-16.4896-1.584259-23.9267-8.583679-29.6358-55.336425-25.88489-71.541443-15.33906-11.5244447 7.50035-17.2557679 18.48927-18.3884888 32.72575-1.2947999 16.26727 2.2348022 31.61325 11.9462588 38.85571 10.746918 8.0141 26.247008 9.20364 41.937774 9.21402 35.713444.0242 30.487944 1.9982 30.487488-8.06943 0-3.54391.302306-9.21745-.228729-12.30889-9.596375-2.49369-43.7211 2.28326-54.466492-2.3924-3.25003-1.41434-9.4151-6.25549-7.348693-10.99191z"/><path d="m376.15686-421.77084c-5.28126.98947-20.03448.25488-26.47816.2554-5.02984.00049-7.9904.84324-10.82048-2.48236-2.22937-2.62015-1.81495-7.16095.11413-9.40222 2.10053-2.44083 7.66681-1.67858 11.54273-1.67858h13.38427c2.57917 0 11.34369-1.0873 12.35047.86547.73352 1.42273.32048 11.00673-.09296 12.44229zm22.45709 12.87548v2.60831c-.2445 6.66845-3.0238 4.62925-17.98492 4.62925-9.96289 0-47.57276.8808-52.10223-1.12485-12.38056-5.48139-17.70283-35.73315-1.18513-49.35611 4.01276-3.30927 8.71413-2.96494 14.80853-2.96444 5.9952.00048 11.98975 0 17.98493 0 5.81922 0 10.80567.7069 14.43854-2.921 3.89069-3.88626 1.12433-10.1546-3.07025-11.13123-2.30689-.53695-37.44482-.21243-43.99182-.19412-3.37592.00985-6.1112 1.08972-6.18476-2.66513-.0766-3.89416-.34387-14.62672.3053-17.647 3.53106-1.1041 34.1311-.39472 40.59406-.39472 11.55163 0 23.33984-1.69143 30.82928 10.5982 6.46448 10.60856 5.22455 22.6828 5.22455 36.27116v20.49438c0 6.21496.26025 10.64612.33392 13.7973z"/><path d="m-174.14505-469.1806c5.45865-.67035 17.29036-.38138 23.16248-.13587 7.3294.30677 13.75235 2.55493 13.79879 9.80039.05136 7.94543-.03164 15.90963-.0094 23.85852.01136 4.26416-.21884 6.85568-2.69079 8.98776-6.80923 5.8736-21.21414 4.729-31.10346 4.25775-7.01671-.33395-13.2297-3.28558-13.79187-9.9491-.5913-7.01028-.05334-16.50982-.05879-23.79132-.00541-7.59913.11807-11.72943 10.69304-13.02813zm58.53949 41.46896c.704925-7.18368 1.073456-37.84552-.48215-43.63663-2.78808-10.38131-13.00146-18.38703-26.08987-18.69923-7.89308-.18822-37.80748-.5918-43.87326.9198-11.08624 2.76295-19.65018 11.47902-20.17925 24.59904-.3611 8.95813-.59279 35.61166 1.40544 43.38962 6.02033 23.43074 28.42798 19.48124 48.00355 19.48124 21.32827 0 38.50451 1.57436 41.21554-26.05384z"/><path d="m143.08374-447.78763c0-12.57614 6.32513-20.80215 18.52631-21.50314 7.43615-.42731 21.3836-.06125 29.97027-.0593 5.82764.0015 7.53394.84772 7.54132-2.69623.01086-5.6661.40607-12.24664-.2727-17.76458-6.25446-.57599-23.36847-.24552-30.69049-.24552-27.71808 0-45.95545 9.97477-45.95545 38.0861 0 16.62148-1.03735 27.14803 12.68189 39.95538 6.48962 6.05882 17.32886 10.35712 29.48315 10.35712h31.8133c2.49126 0 2.9403-.61356 2.9403-3.04993v-14.63907c0-2.10297.24896-2.7901-2.06341-3.02326l-15.09753.00496c-18.04859 0-38.87696 3.74-38.87696-19.98512z"/><path d="m265.05475-514.70776h-19.93567c-2.62067 2.36326.18677 18.306-1.25134 24.27938-2.65864.79831-10.17383-.59082-11.98035.90552-1.22119 1.08186-.77161 1.91916-.74939 4.9281.02472 3.374-.61157 13.57993.51819 14.71564 3.09985 1.88952 9.07916-.99194 12.20911 1.17917 1.02111 2.87405.20996 45.99595.29693 53.1253.09527 7.83475 5.70758 12.8429 13.08837 13.74543 3.39674.41595 24.79273.74298 26.29884-.40015 1.46918-1.83173.60718-7.33087.60718-10.00687 0-2.56186.8294-7.8674-.63732-9.56573-1.6321-1.56796-12.5292-.06915-15.77076-.59378-1.1861-.19168-.67188-.00199-1.44397-.61205-.9618-2.31242-.81855-44.1341.0968-45.6971.80573-.61404.46733-.52264 1.74237-.65258.48016-.04889 1.51898-.00788 2.04956-.00345 17.7196.16055 13.77704 2.78563 13.96924-15.65372.03503-3.37795.36798-3.45845-.74396-4.47217-1.82538-1.66723-13.91834-.24008-17.16443-.80768-1.42955-5.63403 1.42475-20.79672-1.1994-24.41326z"/><path d="m-50.97165-514.70776h-19.939635c-2.54358 3.8749.771145 20.57641-1.423705 24.26309-2.618684 1.22017-9.020845-.12153-12.203645.74051-.450535 2.13159-.630341 18.02096.068145 19.74946 3.28754 2.09255 9.36664-.70048 12.23184 1.17717 1.269564 2.37317.325045 46.67473.45447 53.63263.138306 7.43958 6.09839 12.55542 13.263794 13.34333 3.350251.36853 24.449829.67727 26.315156-.39667.867461-1.8772.591338-17.30762.16745-19.8443-4.055665-1.09866-13.881257.54884-17.293305-.60813-1.544251-1.18707-.652558-45.68225-.375945-46.04928 3.04007-2.08319 14.347624.77261 17.554167-1.25475.801728-1.91572.558716-17.4252.070649-19.7707-3.458496-.86844-15.069856.56512-17.110536-.7489-2.545592-1.98044 1.159394-20.77698-1.7789-24.23346z"/><path d="m234.71405-500.6521v-10.53693l-7.5824.02866-161.44421.76419-17.984925.06918-84.918855.4021v10.54386z"/><path d="m-236.11682-469.7739c.01432-.13833.23167-.4283.26578-.53253.52264-1.59067.23957-14.20287.23957-16.79684 0-2.51793-.11856-2.95313-2.5594-2.95313h-22.79443c-13.52362 0-24.25717 9.6354-24.25717 23.02912v62.31955c0 2.74263-.01183 3.04993 2.92642 3.04993h17.5665c3.06573 0 3.10725-.4451 3.10035-3.44266l-.02967-42.26874c0-8.02597-1.60401-16.6531 3.51477-20.6031 4.33926-3.3488 17.46226.22822 22.02728-1.8016z"/></g></g></svg>