<?xml version="1.0" encoding="utf-8"?>
<!-- Generator: Adobe Illustrator 22.0.1, SVG Export Plug-In . SVG Version: 6.00 Build 0)  -->
<svg version="1.1" id="Layer_1" xmlns="http://www.w3.org/2000/svg" xmlns:xlink="http://www.w3.org/1999/xlink" x="0px" y="0px"
	 viewBox="0 0 62 76" style="enable-background:new 0 0 62 76;" xml:space="preserve">
<style type="text/css">
	.st0{fill:#4A7729;}
	.st1{fill:#007680;}
</style>
<g>
	<g>
		<path class="st0" d="M9.5,57.2l4.3,9.4l4.4-9.5h3.1l-4.6,10.2c-0.2,0.5-0.5,0.9-0.7,1.3c-0.3,0.4-0.6,0.7-0.9,0.9
			c-0.3,0.2-0.7,0.3-1.2,0.3c-0.7,0-1.3-0.3-1.8-0.8c-0.5-0.5-0.9-1.2-1.3-2.2l-4.4-9.8H9.5z"/>
		<path class="st0" d="M22,69.8l-3.1,0l4.2-9.6c0.5-1,0.9-1.8,1.4-2.3c0.4-0.5,1-0.8,1.8-0.8c0.5,0,0.9,0.2,1.3,0.4
			c0.4,0.3,0.7,0.6,0.9,1.1c0.2,0.4,0.5,1,0.9,1.7l4.2,9.5l-3,0l-1.6-3.3h-5.4L22,69.8z M24.9,63.2h2.6l-1.3-2.7L24.9,63.2z"/>
		<g>
			<path class="st0" d="M37.3,62.9l-4-5.8h-3.4l5.6,8.4c0,0,0.2,0.3,0.3,0.6c0.1,0.3,0.1,0.6,0.1,0.6v3.1h2.8v-3.1
				c0,0,0-0.3,0.1-0.6c0.1-0.3,0.3-0.6,0.3-0.6l5.6-8.4h-3.4L37.3,62.9"/>
		</g>
		<path class="st0" d="M44.2,69.8l-3.1,0l4.2-9.6c0.5-1,0.9-1.8,1.4-2.3c0.4-0.5,1-0.8,1.8-0.8c0.5,0,0.9,0.2,1.3,0.4
			c0.4,0.3,0.7,0.6,0.9,1.1c0.2,0.4,0.5,1,0.9,1.7l4.2,9.5l-3,0L51,66.5h-5.4L44.2,69.8z M47.1,63.2h2.6l-1.3-2.7L47.1,63.2z"/>
	</g>
	<g>
		<path class="st1" d="M31.2,52c2.5-5.3,3-10.8,3.5-15.8c0.4-3.9,0.7-7.5,2-10.3c2.7-5.5,6.2-9.7,9.7-13.7c1.7-2,3.3-3.8,4.8-5.8
			c0.2-0.3,0.5-0.3,0.8-0.2c0.3,0.2,0.4,0.5,0.3,0.8c-2.8,6.8-3.9,13.3-5,20.2c-0.5,3.1-1,6.4-1.8,9.7c-1,4.9-5.1,8.6-9,12.2
			c-1.8,1.6-3.4,3.1-4.8,4.8c-0.1,0.1-0.4,0.3-0.6,0.3c-0.3,0-0.5-0.1-0.6-0.3c-1.4-1.6-3.1-3.1-4.8-4.8c-3.9-3.6-8-7.2-9-12.2
			c-0.7-3.4-1.2-6.6-1.8-9.7c-1.1-6.9-2.2-13.5-5-20.2c-0.1-0.3,0-0.6,0.3-0.8c0.3-0.2,0.6-0.1,0.8,0.2c1.5,2,3.1,3.9,4.8,5.8
			c3.5,4,7,8.2,9.7,13.7c1.3,2.8,1.6,6.5,2,10.3c0.4,4.9,1,10.4,3.5,15.8c0,0,0.1,0.1,0.2,0.1C31.1,52.2,31.2,52,31.2,52z"/>
	</g>
</g>
</svg>
